<svg width="241px" height="345px" viewBox="0 0 241 345" version="1.1" xmlns="http://www.w3.org/2000/svg" xmlns:xlink="http://www.w3.org/1999/xlink">
    <!-- Generator: Sketch 48.2 (47327) - http://www.bohemiancoding.com/sketch -->
    <desc>Created with Sketch.</desc>
    <defs></defs>
    <g id="Page-1" stroke="none" stroke-width="1" fill="none" fill-rule="evenodd">
        <g id="iPhone-X" transform="translate(-68.000000, -232.000000)">
            <g id="Page-1" transform="translate(69.000000, 234.000000)">
                <path d="M88.0135,165.7163 C88.0135,165.7163 75.3595,156.8673 69.7315,154.2993 C63.7885,151.5893 49.2475,147.6753 42.9925,147.1953 C36.7375,146.7153 25.2265,144.0063 19.1425,145.2123 C13.0575,146.4173 6.4695,147.3103 6.4695,147.3103 C6.4695,147.3103 25.0615,149.7323 31.5075,152.8343 C37.9545,155.9373 46.0835,160.5723 50.2355,165.1663 C54.3885,169.7603 62.3685,175.6073 62.3685,176.8123 C62.3685,178.0163 66.9545,172.6973 72.3315,171.1393 C77.7385,169.5733 88.0135,165.7163 88.0135,165.7163" id="Fill-1" fill="#AFAFAF"></path>
                <path d="M151.9169,166.6929 C151.9169,166.6929 163.7819,156.8669 169.4099,154.2999 C175.3529,151.5889 189.8939,147.6759 196.1479,147.1959 C202.4039,146.7149 213.9149,144.0059 219.9989,145.2119 C226.0839,146.4179 232.6719,147.3099 232.6719,147.3099 C232.6719,147.3099 214.0799,149.7319 207.6339,152.8349 C201.1869,155.9369 192.3009,159.6739 188.1489,164.2689 C183.9969,168.8629 176.7729,175.6079 176.7729,176.8119 C176.7729,178.0159 172.1869,172.6969 166.8099,171.1399 C161.4029,169.5739 151.9169,166.6929 151.9169,166.6929" id="Fill-3" fill="#AFAFAF"></path>
                <path d="M76.1459,157.6197 C76.1459,157.6197 68.0919,158.2877 63.4709,160.5497 C58.8499,162.8117 53.3159,168.0577 53.3159,168.0577 L48.8849,164.0427 C48.8849,164.0427 52.6959,160.1707 57.9099,157.5207 C62.0429,155.4197 70.3979,154.6397 70.3979,154.6397 L76.1459,157.6197 Z" id="Fill-5" fill="#878787"></path>
                <path d="M41.6068,158.3594 C41.6068,158.3594 43.1718,154.2494 46.1108,152.1904 C49.5808,149.7594 53.8978,148.5124 53.8978,148.5124 L48.3218,147.3104 C48.3218,147.3104 45.4428,147.5084 42.1358,150.6564 C38.9648,153.6764 38.3228,156.4744 38.3228,156.4744 L41.6068,158.3594 Z" id="Fill-7" fill="#878787"></path>
                <path d="M24.0638,151.2329 C24.0638,151.2329 23.3628,150.8099 25.0798,148.3629 C26.7968,145.9159 29.1678,145.0789 29.1678,145.0789 L23.9218,145.0799 C23.9218,145.0799 23.5448,144.9689 22.8008,147.3249 C22.0558,149.6799 21.8158,150.6189 21.8158,150.6189 L24.0638,151.2329 Z" id="Fill-9" fill="#878787"></path>
                <path d="M159.4667,160.3579 C159.4667,160.3579 167.8167,160.2419 172.7967,162.1179 C177.7767,163.9939 183.9967,168.8629 183.9967,168.8629 L188.1487,164.2689 C188.1487,164.2689 183.8397,160.6469 178.2107,158.4289 C173.7487,156.6709 165.0777,156.7009 165.0777,156.7009 L159.4667,160.3579 Z" id="Fill-11" fill="#878787"></path>
                <path d="M194.8661,159.3994 C194.8661,159.3994 192.7881,155.0944 189.4851,153.1584 C185.5841,150.8724 180.9191,149.9604 180.9191,149.9604 L186.6471,148.0834 C186.6471,148.0834 189.6911,148.0044 193.4951,151.0864 C197.1451,154.0424 198.1151,157.0164 198.1151,157.0164 L194.8661,159.3994 Z" id="Fill-13" fill="#878787"></path>
                <path d="M212.5082,151.1826 C212.5082,151.1826 213.1652,150.6936 211.2182,148.4246 C209.2722,146.1556 206.8312,145.5526 206.8312,145.5526 L212.0522,145.0446 C212.0522,145.0446 212.4172,144.8986 213.3862,147.1706 C214.3562,149.4426 214.6862,150.3536 214.6862,150.3536 L212.5082,151.1826 Z" id="Fill-15" fill="#878787"></path>
                <path d="M177.9144,176.812 C177.9144,176.812 183.2184,170.513 188.1484,165.822 C193.6674,160.571 198.7394,156.885 202.9584,155.145 C210.2764,152.127 235.2674,147.31 235.2674,147.31 C235.2674,147.31 237.3064,154.516 237.3524,158.964 C237.3984,163.412 235.4144,184.713 233.4814,192.159 C233.0624,193.769 232.4644,195.952 231.7454,198.456 C230.9514,201.221 230.0284,204.384 229.0044,207.587 C226.4494,215.581 216.5504,236.086 216.5504,236.086 C216.5504,236.086 211.2314,220.99 210.0804,217.743 C206.7644,208.388 200.7474,198.223 196.8364,193.064 C190.7074,184.98 177.9144,176.812 177.9144,176.812" id="Fill-17" fill="#FCA7A7"></path>
                <path d="M61.2274,176.812 C61.2274,176.812 55.9234,170.513 50.9924,165.822 C45.4734,160.571 40.4024,156.885 36.1834,155.145 C28.8654,152.127 3.8744,147.31 3.8744,147.31 C3.8744,147.31 1.0494,154.564 0.9994,158.91 C0.9514,163.173 1.7884,180.374 5.6604,192.159 C6.1794,193.74 6.6774,195.952 7.3964,198.456 C8.1904,201.221 8.1344,204.674 9.3444,207.916 C15.6954,224.93 23.2224,237.67 23.2224,237.67 C23.2224,237.67 27.9104,220.99 29.0604,217.743 C32.3764,208.388 38.3944,198.223 42.3054,193.064 C48.4334,184.98 61.2274,176.812 61.2274,176.812" id="Fill-19" fill="#FCA7A7"></path>
                <path d="M24.4266,230.9766 C16.4896,286.5376 39.4866,309.6236 52.8736,319.6636 C66.0576,329.5516 93.0336,338.0696 126.4996,338.0696 C159.9666,338.0696 191.7596,321.3366 200.1266,309.6236 C213.2116,291.3046 219.5336,252.5586 215.1866,234.3236 C206.8206,199.2216 190.0866,185.7966 180.0466,179.1026 C180.0466,179.1026 163.3136,164.0426 114.7866,164.0426 C110.0576,164.0426 105.9156,164.1056 102.1506,164.2916 C88.5966,164.9646 79.9196,167.2536 66.2596,174.0826 C46.1796,184.1226 27.7736,207.5496 24.4266,230.9766" id="Fill-21" fill="#A8A8A8"></path>
                <path d="M24.4266,230.9766 C16.4896,286.5376 39.4866,309.6236 52.8736,319.6636 C66.0576,329.5516 93.0336,338.0696 126.4996,338.0696 C159.9666,338.0696 191.7596,321.3366 200.1266,309.6236 C213.2116,291.3046 219.5336,252.5586 215.1866,234.3236 C206.8206,199.2216 190.0866,185.7966 180.0466,179.1026 C180.0466,179.1026 163.3136,164.0426 114.7866,164.0426 C110.0576,164.0426 105.9156,164.1056 102.1506,164.2916 C88.5966,164.9646 79.9196,167.2536 66.2596,174.0826 C46.1796,184.1226 27.7736,207.5496 24.4266,230.9766 Z" id="Stroke-23" stroke="#070707" stroke-width="1.673"></path>
                <polygon id="Fill-25" fill="#878787" points="118.1337 212.1514 105.4967 164.2924 117.2967 164.8804 134.0297 164.8804"></polygon>
                <polygon id="Fill-27" fill="#878787" points="105.0258 212.1514 66.2598 174.0834 81.7698 167.6014 91.3598 166.0364"></polygon>
                <polygon id="Fill-29" fill="#878787" points="133.7513 212.5698 146.2323 166.6928 161.2763 170.1048 172.1873 175.7718"></polygon>
                <polygon id="Fill-31" fill="#878787" points="147.3099 318.5581 160.6609 331.8031 170.5699 328.1311 179.7099 323.6411"></polygon>
                <polygon id="Fill-33" fill="#878787" points="90.1874 316.8848 76.8364 330.1298 66.9274 326.4578 57.7864 321.9678"></polygon>
                <path d="M103.7269,248.5464 C103.7269,266.5674 89.1179,281.1764 71.0969,281.1764 C53.0759,281.1764 38.4669,266.5674 38.4669,248.5464 C38.4669,230.5254 52.2389,220.9364 70.2599,220.9364 C88.2809,220.9364 103.7269,230.5254 103.7269,248.5464" id="Fill-35" fill="#FFFFFF"></path>
                <path d="M103.7269,248.5464 C103.7269,266.5674 89.1179,281.1764 71.0969,281.1764 C53.0759,281.1764 38.4669,266.5674 38.4669,248.5464 C38.4669,230.5254 52.2389,220.9364 70.2599,220.9364 C88.2809,220.9364 103.7269,230.5254 103.7269,248.5464 Z" id="Stroke-37" stroke="#070707" stroke-width="1.673"></path>
                <path d="M201.1469,250.2197 C201.1469,268.2407 186.5379,282.8497 168.5169,282.8497 C150.4959,282.8497 135.8869,268.2407 135.8869,250.2197 C135.8869,232.1987 149.6589,222.6097 167.6799,222.6097 C185.7009,222.6097 201.1469,232.1987 201.1469,250.2197" id="Fill-39" fill="#FFFFFF"></path>
                <path d="M201.1469,250.2197 C201.1469,268.2407 186.5379,282.8497 168.5169,282.8497 C150.4959,282.8497 135.8869,268.2407 135.8869,250.2197 C135.8869,232.1987 149.6589,222.6097 167.6799,222.6097 C185.7009,222.6097 201.1469,232.1987 201.1469,250.2197 Z" id="Stroke-41" stroke="#070707" stroke-width="1.673"></path>
                <path d="M121.4799,274.4834 C121.4799,276.3314 119.9819,277.8304 118.1339,277.8304 C116.2849,277.8304 114.7869,276.3314 114.7869,274.4834 C114.7869,272.6344 116.2849,271.1364 118.1339,271.1364 C119.9819,271.1364 121.4799,272.6344 121.4799,274.4834" id="Fill-43" fill="#070707"></path>
                <path d="M90.3402,255.2398 C90.3402,265.8678 81.7242,274.4838 71.0962,274.4838 C60.4692,274.4838 51.8532,265.8678 51.8532,255.2398 C51.8532,244.6128 60.4692,235.9968 71.0962,235.9968 C81.7242,235.9968 90.3402,244.6128 90.3402,255.2398" id="Fill-45" fill="#5A3E16"></path>
                <path d="M90.3402,255.2398 C90.3402,265.8678 81.7242,274.4838 71.0962,274.4838 C60.4692,274.4838 51.8532,265.8678 51.8532,255.2398 C51.8532,244.6128 60.4692,235.9968 71.0962,235.9968 C81.7242,235.9968 90.3402,244.6128 90.3402,255.2398 Z" id="Stroke-47" stroke="#111111" stroke-width="1.673"></path>
                <path d="M188.597,257.75 C188.597,268.378 179.981,276.993 169.353,276.993 C158.725,276.993 150.11,268.378 150.11,257.75 C150.11,247.122 158.725,238.506 169.353,238.506 C179.981,238.506 188.597,247.122 188.597,257.75" id="Fill-49" fill="#5A3E16"></path>
                <path d="M188.597,257.75 C188.597,268.378 179.981,276.993 169.353,276.993 C158.725,276.993 150.11,268.378 150.11,257.75 C150.11,247.122 158.725,238.506 169.353,238.506 C179.981,238.506 188.597,247.122 188.597,257.75 Z" id="Stroke-51" stroke="#111111" stroke-width="1.673"></path>
                <path d="M161.64,299.5835 L216.86,292.8905" id="Stroke-53" stroke="#070707" stroke-width="1.673"></path>
                <path d="M163.3134,304.6035 L228.5734,304.6035" id="Stroke-55" stroke="#070707" stroke-width="1.673"></path>
                <path d="M161.64,309.6236 L205.147,314.6436" id="Stroke-57" stroke="#070707" stroke-width="1.673"></path>
                <path d="M78.8099,297.9102 L23.5899,291.2172" id="Stroke-59" stroke="#070707" stroke-width="1.673"></path>
                <path d="M77.1366,302.9302 L11.8766,302.9302" id="Stroke-61" stroke="#070707" stroke-width="1.673"></path>
                <path d="M78.8099,307.9502 L35.3039,312.9702" id="Stroke-63" stroke="#070707" stroke-width="1.673"></path>
                <path d="M216.5502,236.0864 C224.9172,227.7194 235.2672,192.4894 236.9402,172.4094 C238.6132,152.3294 235.2672,147.3104 235.2672,147.3104 C235.2672,147.3104 218.5332,142.2904 190.0872,147.3104 C166.7822,151.4224 149.9262,167.3884 149.9262,167.3884" id="Stroke-65" stroke="#070707" stroke-width="4"></path>
                <path d="M235.267,147.3101 C234.978,146.4351 210.167,150.6561 198.454,157.3501 C188.707,162.9191 176.773,176.8121 176.773,176.8121" id="Stroke-67" stroke="#070707" stroke-width="1.673"></path>
                <path d="M88.0135,165.7163 C88.0135,165.7163 71.6265,151.4223 48.3225,147.3103 C19.8755,142.2903 3.1415,147.3103 3.1415,147.3103 C3.1415,147.3103 -0.2045,152.3293 1.4685,172.4093 C3.1415,192.4893 14.8555,229.3033 23.2215,237.6703" id="Stroke-69" stroke="#070707" stroke-width="4"></path>
                <path d="M61.6356,176.812 C61.6356,176.812 49.7016,162.919 39.9556,157.35 C28.2416,150.656 3.4306,146.436 3.1416,147.31" id="Stroke-71" stroke="#070707" stroke-width="1.673"></path>
                <path d="M114.787,160.043 C109.448,160.043 105.49,160.122 101.952,160.297 C87.611,161.008 78.504,163.489 64.471,170.505 C42.352,181.565 23.846,206.759 20.467,230.411 C14.478,272.333 24.574,303.439 50.474,322.863 C62.853,332.148 89.327,342.07 126.5,342.07 C162.15,342.07 194.588,324.259 203.382,311.948 C217.281,292.49 223.629,252.492 219.078,233.396 C210.722,198.339 194.229,183.79 182.462,175.907 C180.032,173.885 161.663,160.043 114.787,160.043 M114.787,164.043 C163.313,164.043 180.047,179.103 180.047,179.103 C190.087,185.796 206.82,199.221 215.187,234.323 C219.534,252.559 213.212,291.304 200.127,309.624 C191.76,321.336 159.967,338.07 126.5,338.07 C93.034,338.07 66.058,329.552 52.873,319.663 C39.487,309.624 16.49,286.538 24.427,230.977 C27.773,207.55 46.18,184.123 66.26,174.083 C79.919,167.253 88.597,164.964 102.15,164.292 C105.915,164.105 110.058,164.043 114.787,164.043" id="Fill-73" fill="#070707"></path>
                <path d="M173.8177,188.1895 L171.5907,189.0695 C136.6717,202.8695 97.7527,202.5355 63.0757,188.1385 C61.0987,187.3175 60.0577,185.1395 60.6617,183.0855 L101.7967,43.1475 C102.4067,41.0735 103.3907,39.1275 104.6987,37.4065 L132.1667,1.2705 C133.3277,-0.2565 135.7647,0.6495 135.6447,2.5645 L132.8677,46.9955 C132.3257,55.6655 133.5647,64.3545 136.5057,72.5275 L176.2207,182.8725 C176.9877,185.0025 175.9237,187.3575 173.8177,188.1895" id="Fill-75" fill="#9B3B66"></path>
                <path d="M173.8177,188.1895 L171.5907,189.0695 C136.6717,202.8695 97.7527,202.5355 63.0757,188.1385 C61.0987,187.3175 60.0577,185.1395 60.6617,183.0855 L101.7967,43.1475 C102.4067,41.0735 103.3907,39.1275 104.6987,37.4065 L132.1667,1.2705 C133.3277,-0.2565 135.7647,0.6495 135.6447,2.5645 L132.8677,46.9955 C132.3257,55.6655 133.5647,64.3545 136.5057,72.5275 L176.2207,182.8725 C176.9877,185.0025 175.9237,187.3575 173.8177,188.1895 Z" id="Stroke-77" stroke="#000000" stroke-width="5"></path>
                <path d="M174.2206,181.8745 L134.5066,71.5305 C131.5646,63.3565 130.3256,54.6675 130.8676,45.9975 L133.3676,7.7965 C133.7656,3.0535 132.5946,4.0525 131.4326,5.5805 L122.9956,18.4245 L119.8346,59.1405 L164.0086,181.8745 C164.7756,184.0055 163.7116,186.3595 161.6056,187.1915 L159.3796,188.0715 C143.9176,194.1825 127.2266,195.8175 110.9126,196.3925 C132.4906,197.4635 150.4476,194.1475 169.5916,188.0715 L171.8176,187.1915 C173.9236,186.3595 174.9876,184.0045 174.2206,181.8745" id="Fill-79" fill="#8A3159"></path>
                <path d="M74.4252,134.7466 L85.3422,137.3316 C106.6902,142.3876 128.9442,142.2196 150.2132,136.8416 L158.6472,134.7096 C159.9722,134.3736 161.3402,135.0736 161.8442,136.3446 L165.8302,146.3886 C166.4522,147.9566 165.5132,149.7076 163.8632,150.0566 L146.8022,153.6616 C127.5552,157.7276 107.6562,157.5836 88.4712,153.2396 L70.3102,149.1256 C68.6332,148.7466 67.6442,147.0116 68.1712,145.3756 L70.9662,136.6976 C71.4332,135.2446 72.9402,134.3946 74.4252,134.7466" id="Fill-81" fill="#693158"></path>
                <path d="M74.4252,134.7466 L85.3422,137.3316 C106.6902,142.3876 128.9442,142.2196 150.2132,136.8416 L158.6472,134.7096 C159.9722,134.3736 161.3402,135.0736 161.8442,136.3446 L165.8302,146.3886 C166.4522,147.9566 165.5132,149.7076 163.8632,150.0566 L146.8022,153.6616 C127.5552,157.7276 107.6562,157.5836 88.4712,153.2396 L70.3102,149.1256 C68.6332,148.7466 67.6442,147.0116 68.1712,145.3756 L70.9662,136.6976 C71.4332,135.2446 72.9402,134.3946 74.4252,134.7466 Z" id="Stroke-83" stroke="#000000" stroke-width="2"></path>
                <path d="M163.9369,144.3706 C163.4719,144.4626 163.4079,144.5016 162.8629,144.6166 L146.8019,148.2216 C127.5559,152.2886 107.6569,152.1446 88.4709,147.7996 L71.3099,143.6866 C70.8819,143.6186 70.5079,143.5046 70.5079,143.5046 L69.8539,143.3246 L69.2229,145.0786 C68.6959,146.7146 69.4159,148.0026 71.0919,148.3826 L88.4709,152.2396 C107.6569,156.5836 127.5559,156.7276 146.8019,152.6616 L163.5419,149.0216 C165.1929,148.6726 165.2889,147.2626 164.6659,145.6946 L163.9369,144.3706 Z" id="Fill-85" fill="#59294B"></path>
                <polygon id="Fill-87" fill="#FCC65A" points="159.6703 150.9419 156.5943 151.5919 157.0973 153.5689 145.1243 156.2049 139.9823 136.8079 151.1913 134.6259 151.5523 136.5029 156.5943 135.2279 154.5783 130.1859 135.6843 134.6259 136.6533 138.1819 141.0143 157.3349 141.7413 160.5959 160.6413 155.5979"></polygon>
                <path d="M114.0267,113.4512 L105.2197,117.7082 C104.7377,117.9412 104.1977,117.5202 104.3057,116.9962 L106.2837,107.4162 C106.3267,107.2082 106.2647,106.9922 106.1177,106.8382 L99.3467,99.7782 C98.9767,99.3922 99.2097,98.7482 99.7417,98.6892 L109.4647,97.6102 C109.6747,97.5862 109.8617,97.4602 109.9627,97.2732 L114.5847,88.6522 C114.8377,88.1802 115.5217,88.2032 115.7427,88.6912 L119.7737,97.6042 C119.8607,97.7972 120.0387,97.9362 120.2477,97.9732 L129.8747,99.7052 C130.4017,99.8012 130.5917,100.4582 130.1957,100.8192 L122.9647,107.4072 C122.8077,107.5502 122.7307,107.7622 122.7597,107.9722 L124.0877,117.6632 C124.1597,118.1942 123.5927,118.5772 123.1277,118.3122 L114.6277,113.4712 C114.4427,113.3662 114.2177,113.3582 114.0267,113.4512" id="Fill-89" fill="#DDDCE2"></path>
                <path d="M131.1947,181.7691 C129.3497,182.6451 127.2747,183.1411 125.0457,183.1291 C118.5727,183.0951 112.8457,178.5361 111.3607,172.2351 C110.8497,170.0661 110.8667,167.9331 111.3077,165.9381 C111.4787,165.1641 110.4997,164.6641 109.9887,165.2721 C107.3417,168.4221 106.0597,172.7051 106.9397,177.1541 C108.2677,183.8711 114.4007,188.7521 121.2437,188.5401 C125.7777,188.4001 129.6637,186.1911 132.1397,182.9051 C132.6177,182.2711 131.9117,181.4281 131.1947,181.7691" id="Fill-91" fill="#DDDCE2"></path>
                <path d="M126.9178,296.1489 C126.9178,296.1489 121.0128,298.2609 118.9148,298.2649 C114.7868,298.2709 110.9128,296.3259 110.9128,296.3259 C110.9128,296.3259 114.2688,297.0849 116.2448,294.5639 C117.6018,292.8319 118.9148,290.0979 118.9148,290.0979 C118.9148,290.0979 118.8488,290.9159 121.4798,294.7639 C123.2528,297.3569 126.9178,296.1489 126.9178,296.1489" id="Fill-93" fill="#EDCACA"></path>
                <path d="M126.9178,296.1489 C126.9178,296.1489 121.0128,298.2609 118.9148,298.2649 C114.7868,298.2709 110.9128,296.3259 110.9128,296.3259 C110.9128,296.3259 114.2688,297.0849 116.2448,294.5639 C117.6018,292.8319 118.9148,290.0979 118.9148,290.0979 C118.9148,290.0979 118.8488,290.9159 121.4798,294.7639 C123.2528,297.3569 126.9178,296.1489 126.9178,296.1489 Z" id="Stroke-95" stroke="#070707" stroke-width="0.756"></path>
                <path d="M106.391,288.6353 C106.391,289.7653 105.636,296.4923 112.686,296.4913 C117.231,296.4903 118.974,288.6353 118.974,288.6353 C118.974,288.6353 119.906,296.2823 124.813,296.3753 C130.923,296.4913 130.59,291.1193 130.59,288.6353" id="Stroke-97" stroke="#070707"></path>
            </g>
        </g>
    </g>
</svg>